<svg width="128" height="24" viewBox="0 0 128 24" fill="none" xmlns="http://www.w3.org/2000/svg">
<path fill-rule="evenodd" clip-rule="evenodd" d="M13.4408 14.9942C14.2216 14.5354 14.7914 13.7804 15.025 12.8951C15.2586 12.0097 15.137 11.0662 14.6868 10.2719C14.2347 9.47839 13.4914 8.89956 12.6199 8.66243C11.7484 8.4253 10.8199 8.54924 10.0383 9.00705C9.65036 9.23277 9.31042 9.53452 9.03814 9.8948C8.76587 10.2551 8.56669 10.6667 8.45214 11.1058C8.33527 11.5443 8.30515 12.0019 8.36353 12.4522C8.42191 12.9026 8.56763 13.3366 8.79224 13.7293C9.24475 14.5224 9.98808 15.1008 10.8594 15.3379C11.7307 15.575 12.6589 15.4514 13.4408 14.9942ZM9.21851 7.56471C11.6259 6.15337 14.7165 6.99429 16.1059 9.44029C16.7726 10.617 16.9528 12.0144 16.6068 13.326C16.2608 14.6375 15.417 15.7559 14.2605 16.4358C13.1024 17.1144 11.7267 17.2982 10.4354 16.9468C9.14409 16.5954 8.04274 15.7376 7.37313 14.5617C7.04032 13.9799 6.82447 13.3368 6.73807 12.6696C6.65168 12.0024 6.69647 11.3244 6.86984 10.6749C7.03946 10.0244 7.33438 9.4145 7.73754 8.88062C8.1407 8.34674 8.64407 7.89947 9.21851 7.56471ZM5.8953 15.4282C7.10014 17.5487 6.63498 20.1877 4.92305 21.7726C4.46888 21.4465 4.03821 21.0878 3.63433 20.6992C4.27518 20.185 4.71274 19.4538 4.86715 18.6389C5.02156 17.824 4.88253 16.9799 4.47543 16.2606C4.25284 15.8666 3.95559 15.5214 3.60088 15.245C3.24616 14.9685 2.84102 14.7663 2.40891 14.6501C1.70105 14.4556 0.950097 14.501 0.269944 14.7795C0.141191 14.2305 0.0509821 13.6729 0 13.1109C0.918324 12.8111 1.90226 12.7872 2.83365 13.0419C3.47389 13.2143 4.07414 13.5141 4.59967 13.9238C5.12519 14.3336 5.56556 14.8451 5.8953 15.429V15.4282ZM17.0812 4.68623C17.3294 3.73945 17.8416 2.88574 18.556 2.22782C19.01 2.55392 19.4406 2.91237 19.8447 3.30047C19.2672 3.7595 18.8526 4.39723 18.6635 5.11715C18.5467 5.55545 18.5167 6.01295 18.575 6.46314C18.6334 6.91333 18.7791 7.34728 19.0036 7.73987C19.2261 8.13393 19.5233 8.47919 19.878 8.75565C20.2328 9.03211 20.638 9.23426 21.0701 9.35039C21.7869 9.54647 22.5304 9.4961 23.2083 9.21941C23.3379 9.77123 23.4279 10.3269 23.4783 10.8834C22.9876 11.0468 22.4749 11.1318 21.9585 11.1353C21.5153 11.135 21.0741 11.0756 20.6461 10.9586C20.0059 10.7864 19.4056 10.4868 18.8801 10.0771C18.3546 9.66752 17.9142 9.15603 17.5845 8.57226C17.2517 7.99063 17.0358 7.34763 16.9494 6.68054C16.863 6.01346 16.9078 5.33558 17.0812 4.68623ZM11.7395 18.8554C14.1492 18.8554 16.1669 20.583 16.6626 22.8817C16.1516 23.1212 15.6301 23.3188 15.1031 23.4785C14.9846 22.6574 14.5798 21.9069 13.9623 21.3639C13.3449 20.8209 12.556 20.5214 11.7395 20.5202C10.9235 20.5215 10.1351 20.8207 9.51783 21.3633C8.9006 21.9058 8.49563 22.6556 8.37665 23.4762C7.84372 23.3153 7.32262 23.1164 6.81723 22.8809C7.31289 20.5822 9.32984 18.8554 11.7395 18.8554ZM11.7395 5.14505C9.32984 5.14505 7.31213 3.41673 6.81647 1.11875C7.32738 0.879264 7.84896 0.68163 8.37589 0.521973C8.49455 1.34292 8.89949 2.0932 9.51691 2.63608C10.1343 3.17895 10.9231 3.47828 11.7395 3.4795C13.4476 3.4795 14.8629 2.19295 15.1024 0.524298C15.6357 0.684705 16.1571 0.88362 16.6626 1.11952C16.1669 3.4175 14.1492 5.14428 11.7395 5.14428V5.14505ZM20.6461 13.0427C21.5764 12.7876 22.5593 12.811 23.4767 13.1101C23.4248 13.6723 23.334 14.2302 23.2053 14.7795C22.5261 14.5026 21.7769 14.4572 21.0701 14.6501C20.638 14.7663 20.2328 14.9685 19.8781 15.2449C19.5234 15.5214 19.2261 15.8666 19.0036 16.2606C18.7792 16.6532 18.6335 17.0872 18.5752 17.5373C18.5168 17.9875 18.5468 18.445 18.6635 18.8833C18.8521 19.6028 19.2663 20.2403 19.8432 20.6992C19.4436 21.0829 19.0143 21.4425 18.5545 21.7719C17.8404 21.1144 17.3285 20.2612 17.0804 19.315C16.7319 17.9936 16.9104 16.6132 17.5837 15.4282C18.2571 14.2432 19.3452 13.3961 20.6454 13.0419L20.6461 13.0427ZM2.83289 10.9586C2.40467 11.0756 1.9632 11.135 1.51977 11.1353C1.0042 11.1319 0.49228 11.0472 0.00228766 10.8842C0.0541413 10.3238 0.144885 9.76813 0.273757 9.22173C0.950142 9.4961 1.69211 9.5457 2.40891 9.35039C2.84105 9.23422 3.24623 9.03205 3.60095 8.7556C3.95568 8.47915 4.25291 8.1339 4.47543 7.73987C4.69996 7.34743 4.84563 6.91361 4.90401 6.46354C4.96239 6.01347 4.93232 5.5561 4.81553 5.11793C4.62673 4.3983 4.21233 3.76081 3.63509 3.30202C4.03917 2.91371 4.46982 2.555 4.92381 2.2286C5.6379 2.88632 6.14978 3.73977 6.39782 4.68623C6.57097 5.33561 6.61564 6.01345 6.52925 6.68049C6.44286 7.34754 6.22712 7.99054 5.89454 8.57226C5.56476 9.15597 5.12436 9.66743 4.59884 10.077C4.07331 10.4866 3.47308 10.7863 2.83289 10.9586Z" fill="white"/>
<path fill-rule="evenodd" clip-rule="evenodd" d="M37.7752 19.1542C40.2471 19.1542 41.3881 18.0517 41.3881 15.9665V15.8702C41.3881 13.7617 40.224 12.7546 37.4897 12.7546H34.0196V19.1542H37.7752ZM37.1097 11.1258C39.6058 11.1258 40.5557 10.214 40.5557 8.10548V8.01014C40.5557 6.06897 39.4389 5.27789 37.0615 5.27789H34.0196V11.1258H37.1097ZM32 3.64807H37.1097C40.2713 3.64807 42.5763 4.70284 42.5763 8.08215V8.17647C42.5763 9.73428 41.9581 11.1247 40.0089 11.7951C42.4808 12.3935 43.4077 13.6643 43.4077 15.8935V15.9888C43.4077 19.2252 41.2212 20.783 37.8224 20.783H32V3.64807ZM45.9158 8.24949H47.8881V10.502C48.6722 9.08824 49.7418 8.10548 51.9765 8.03347V9.90264C49.4804 10.0223 47.8881 10.8134 47.8881 13.9057V20.784H45.9158V8.24949ZM60.7433 16.3986V14.8398H59.0324C56.5373 14.8398 54.7067 15.4625 54.7067 17.3083C54.7067 18.6014 55.325 19.4158 57.059 19.4158C59.152 19.4158 60.7443 18.3377 60.7443 16.3976L60.7433 16.3986ZM52.7344 17.3093C52.7344 14.4087 55.7763 13.426 58.961 13.426H60.7443V12.5152C60.7443 10.5264 59.9833 9.68763 58.0824 9.68763C56.3704 9.68763 55.4205 10.4057 55.2295 11.9402H53.2572C53.5185 9.08722 55.7763 8.03347 58.1769 8.03347C60.5533 8.03347 62.7166 9.01623 62.7166 12.5152V20.784H60.7443V19.2018C59.8165 20.3763 58.7006 21 56.8701 21C54.564 21 52.7344 19.8732 52.7344 17.3083V17.3093ZM65.5836 20.784V8.24746H67.5559V20.783L65.5836 20.784ZM65.2267 4.31846C65.2267 3.59939 65.8209 3 66.5336 3C67.2473 3 67.8414 3.59939 67.8414 4.31846C67.8414 5.03854 67.2473 5.63692 66.5346 5.63692C65.8219 5.63692 65.2277 5.03854 65.2277 4.31846H65.2267ZM70.5365 8.24848H72.5088V10.2383C73.0798 9.06389 74.458 8.03347 76.5017 8.03347C79.0681 8.03347 80.8746 9.44726 80.8746 13.0903V20.784H78.9023V12.9473C78.9023 10.7414 77.9764 9.75862 75.979 9.75862C74.1494 9.75862 72.5088 10.9331 72.5088 13.1866V20.783H70.5365V8.24848ZM84.0059 17.644V9.92596H82.2226V8.24949H84.0059V5.39757H85.9783V8.24949H88.8774V9.92799H85.9783V17.4533C85.9783 18.6755 86.5241 19.2748 87.5223 19.2748C88.1416 19.2748 88.6161 19.1785 89.0443 19.0112V20.6886C88.6402 20.8327 88.1647 20.9523 87.3565 20.9523C85.0987 20.9523 84.0059 19.6095 84.0059 17.646V17.644ZM90.8437 8.24848H92.816V10.502C93.6001 9.08722 94.6707 8.10548 96.9044 8.03347V9.90264C94.4083 10.0223 92.816 10.8134 92.816 13.9057V20.783H90.8437V8.24848ZM98.6043 16.1815V8.24848H100.577V16.0872C100.577 18.2911 101.504 19.2748 103.452 19.2748C105.211 19.2748 106.876 18.1004 106.876 15.8469V8.25051H108.848V20.783H106.876V18.7951C106.305 19.9686 104.926 20.999 102.93 20.999C100.458 20.999 98.6033 19.6329 98.6033 16.1815H98.6043ZM110.96 16.9249H112.886C113.028 18.4108 113.812 19.3448 115.809 19.3448C117.686 19.3448 118.518 18.6988 118.518 17.357C118.518 16.0385 117.543 15.6065 115.619 15.2475C112.386 14.6481 111.293 13.7373 111.293 11.5558C111.293 9.23124 113.55 8.03347 115.5 8.03347C117.734 8.03347 119.659 8.94422 119.992 11.6521H118.091C117.806 10.287 117.046 9.68661 115.477 9.68661C114.05 9.68661 113.123 10.4067 113.123 11.4848C113.123 12.6105 113.741 13.0669 116.023 13.4736C118.59 13.9523 120.396 14.5284 120.396 17.1886C120.396 19.4655 118.851 21 115.832 21C112.862 21 111.08 19.4888 110.96 16.9249ZM122.961 17.645V9.92698H121.178V8.24746H122.961V5.39757H124.934V8.24949H127.833V9.92799H124.933V17.4533C124.933 18.6755 125.48 19.2748 126.479 19.2748C127.096 19.2748 127.571 19.1785 128 19.0112V20.6886C127.595 20.8327 127.119 20.9523 126.311 20.9523C124.053 20.9523 122.961 19.6095 122.961 17.646V17.645Z" fill="white"/>
</svg>
