<svg width="221" height="40" viewBox="0 0 221 40" fill="none" xmlns="http://www.w3.org/2000/svg">
<path fill-rule="evenodd" clip-rule="evenodd" d="M38.3487 0.937332C39.6391 -0.302594 41.6732 -0.308232 42.9703 0.895827L43.0932 1.01546L43.5126 1.45736C47.7614 6.0489 49.3446 11.3997 48.9385 16.6254C48.5265 21.9248 46.0924 26.9222 42.6967 30.8713C39.3031 34.8179 34.7723 37.9259 29.8748 39.2749C24.9157 40.6406 19.4919 40.2052 14.7838 36.866C10.7906 34.0336 9.27028 29.4562 9.167 25.0094C6.92619 23.9052 4.56842 22.5328 2.09457 20.8638L1.4409 20.4178L1.30165 20.3169C-0.102828 19.2389 -0.42396 17.2437 0.59965 15.779C1.62357 14.3143 3.61731 13.917 5.12456 14.848L5.26955 14.9424L5.86506 15.3493C7.34702 16.3491 8.76109 17.2159 10.1057 17.9641C10.9731 14.9059 12.4104 11.9696 14.3038 9.5492C17.1405 5.92322 21.3936 3.02347 26.604 3.45611C31.2972 3.84608 34.7649 6.27842 36.5548 9.71115C38.2879 13.0351 38.3136 17.0336 36.7989 20.4723C35.2546 23.9779 32.1196 26.8985 27.6098 28.1019C24.3643 28.9679 20.5622 28.9084 16.2722 27.7487V27.7503C14.5645 27.2885 12.7748 26.6507 10.9044 25.8224C10.4848 25.6366 10.1196 25.9205 10.9044 26.4132C13.1131 27.9882 16.2245 29.3084 17.1249 29.7515C17.5504 30.4431 18.0781 31.0104 18.6829 31.4394C21.4662 33.4135 24.7222 33.7752 28.0825 32.8497C31.5044 31.9072 34.9341 29.6346 37.5943 26.541C40.2524 23.4497 41.9662 19.7458 42.2486 16.1119C42.5151 12.683 41.5302 9.16045 38.5633 5.95943L38.2701 5.65099L38.153 5.52403C36.9855 4.19612 37.059 2.17717 38.3487 0.937332ZM26.0453 10.1002C23.8926 9.92141 21.6207 11.0599 19.602 13.6403C18.0646 15.6055 16.9013 18.159 16.3082 20.7865C20.533 22.2375 23.6815 22.2474 25.8692 21.6638C28.4018 20.988 29.9204 19.458 30.6513 17.7989C31.4116 16.0726 31.3337 14.1916 30.5964 12.7776C29.9159 11.4725 28.5459 10.308 26.0453 10.1002Z" fill="#26FF59"></path>
<path d="M137.709 13.6026C135.84 13.6026 134.64 12.1927 134.9 10.3013C135.16 8.40993 136.748 7 138.618 7C140.487 7 141.687 8.40993 141.427 10.3013C141.167 12.1927 139.579 13.6026 137.709 13.6026Z" fill="white"></path>
<path d="M132.61 32.1381L134.947 15.1501H140.046L137.709 32.1381H132.61Z" fill="white"></path>
<path fill-rule="evenodd" clip-rule="evenodd" d="M141.573 23.8163L139.429 39.3943H144.528L145.782 30.2813C146.628 31.7944 148.219 32.5854 150.224 32.5854C154.032 32.5854 158.771 29.7655 159.584 23.8506C160.337 18.3828 157.104 14.7033 151.767 14.7033C146.634 14.7033 142.358 18.1077 141.573 23.8163ZM154.446 23.6443C154.11 26.0859 152.314 27.7709 150.003 27.7709C147.691 27.7709 146.359 26.0859 146.695 23.6443C147.031 21.2027 148.827 19.5177 151.138 19.5177C153.45 19.5177 154.782 21.2027 154.446 23.6443Z" fill="white"></path>
<path d="M166.375 32.5854C162.058 32.5854 159.592 30.2469 159.973 26.98H165.004C164.915 27.8741 165.5 28.3212 166.893 28.3212C168.457 28.3212 169.043 27.7709 169.142 27.0488C169.288 25.9893 168.243 25.829 166.858 25.6166L166.853 25.6157C166.756 25.6008 166.658 25.5857 166.558 25.5701C164.294 25.2262 160.567 24.6416 161.13 20.5493C161.603 17.1105 164.62 14.7033 168.801 14.7033C172.982 14.7033 175.23 17.1449 174.911 20.2054H169.948C169.92 19.4145 169.302 18.9675 168.282 18.9675C167.025 18.9675 166.425 19.6208 166.33 20.3086C166.195 21.2935 167.287 21.4635 168.717 21.6863L168.924 21.7185C171.29 22.0624 174.905 22.7158 174.352 26.7393C173.869 30.2469 170.692 32.5854 166.375 32.5854Z" fill="white"></path>
<path d="M195.178 22.5783L193.863 32.1383H198.962L200.277 22.5783C200.59 20.3086 201.786 19.5177 203.316 19.5177C204.812 19.5177 205.791 20.3086 205.478 22.5783L204.163 32.1383H209.262L210.577 22.5783C210.89 20.3086 212.086 19.5177 213.582 19.5177C215.112 19.5177 216.091 20.3086 215.779 22.5783L214.463 32.1383H219.562L220.878 22.5783C221.63 17.1105 218.834 14.7033 214.754 14.7033C212.341 14.7033 210.241 15.6318 208.738 17.42C207.726 15.6318 205.848 14.7033 203.468 14.7033C199.389 14.7033 195.931 17.1105 195.178 22.5783Z" fill="white"></path>
<path d="M176.237 23.9536C175.447 29.6965 178.381 32.5851 183.344 32.5851C188.307 32.5851 192.04 29.6621 192.826 23.9536L194.037 15.1501H188.938L187.727 23.9536C187.358 26.6359 185.91 27.7707 184.006 27.7707C182.102 27.7707 180.967 26.6359 181.336 23.9536L182.547 15.1501H177.448L176.237 23.9536Z" fill="white"></path>
<path fill-rule="evenodd" clip-rule="evenodd" d="M113.669 23.6443C112.96 28.8026 116.179 32.5854 121.482 32.5854C126.785 32.5854 131.044 28.8026 131.754 23.6443C132.464 18.486 129.245 14.7033 123.942 14.7033C118.639 14.7033 114.379 18.486 113.669 23.6443ZM126.587 23.6443C126.251 26.0859 124.455 27.7709 122.144 27.7709C119.832 27.7709 118.5 26.0859 118.836 23.6443C119.172 21.2027 120.968 19.5177 123.279 19.5177C125.591 19.5177 126.923 21.2027 126.587 23.6443Z" fill="white"></path>
<path fill-rule="evenodd" clip-rule="evenodd" d="M97.4338 30.9881C95.374 29.41 94.3525 26.7816 94.7841 23.6443C95.4937 18.486 99.7534 14.7033 105.056 14.7033C110.359 14.7033 113.578 18.486 112.869 23.6443C112.183 28.6269 108.185 32.326 103.135 32.5723C104.324 33.2563 106.052 33.8094 107.322 34.2159C107.746 34.3517 108.119 34.4712 108.404 34.5737C109.557 34.8653 110.293 35.9522 110.115 37.2484C109.906 38.7681 108.519 40 107.016 40H98.8563C95.8518 40 93.7552 37.5361 94.1733 34.4967H102.875C100.887 33.7188 98.7857 32.1629 97.4338 30.9881ZM103.259 27.7709C105.57 27.7709 107.366 26.0859 107.702 23.6443C108.038 21.2027 106.706 19.5177 104.394 19.5177C102.083 19.5177 100.287 21.2027 99.9511 23.6443C99.6152 26.0859 100.947 27.7709 103.259 27.7709Z" fill="white"></path>
<path fill-rule="evenodd" clip-rule="evenodd" d="M75.8989 23.6443C75.1892 28.8026 78.4081 32.5854 83.7111 32.5854C89.0142 32.5854 93.2739 28.8026 93.9835 23.6443C94.6932 18.486 91.4743 14.7033 86.1713 14.7033C80.8683 14.7033 76.6085 18.486 75.8989 23.6443ZM88.8165 23.6443C88.4806 26.0859 86.6851 27.7709 84.3735 27.7709C82.0619 27.7709 80.73 26.0859 81.0659 23.6443C81.4018 21.2027 83.1974 19.5177 85.5089 19.5177C87.8205 19.5177 89.1524 21.2027 88.8165 23.6443Z" fill="white"></path>
<path d="M58 32.1382L61.0941 9.64798H66.601L64.2166 26.9799H74.7207L74.011 32.1382H58Z" fill="white"></path>
</svg>