<svg width="216" height="40" viewBox="0 0 216 40" fill="none" xmlns="http://www.w3.org/2000/svg">
<path d="M16.6584 40H15.3817C12.0653 40 10.07 39.9994 8.54581 39.7159L17.3668 28.0344L16.6584 40Z" fill="#FF1616"></path>
<path d="M31.2482 39.7514C29.7502 39.9988 27.7875 40 24.6183 40H23.109L22.397 28.0309L31.2482 39.7514Z" fill="#FF1616"></path>
<path d="M39.6715 31.6708C39.6071 31.9773 39.5313 32.2655 39.4389 32.5426C38.8337 34.3567 37.7712 35.9522 36.3867 37.1982L26.44 26.044L39.6715 31.6708Z" fill="#FF1616"></path>
<path d="M3.48544 37.0792C2.16397 35.8511 1.14739 34.3 0.56108 32.5426C0.459551 32.2382 0.375253 31.921 0.307173 31.5803L13.3239 26.0458L3.48544 37.0792Z" fill="#FF1616"></path>
<path d="M40 24.6183C40 25.7428 39.9968 26.7154 39.9858 27.5692L28.1729 23.006H40V24.6183Z" fill="#FF1616"></path>
<path d="M11.5962 23.006L0.0106534 27.4805C0.000706106 26.6481 0 25.704 0 24.6183V23.006H11.5962Z" fill="#FF1616"></path>
<path d="M24.6183 0C28.7807 0 30.862 0.000553673 32.5426 0.56108C35.7979 1.64713 38.3529 4.20208 39.4389 7.45739C39.9994 9.13798 40 11.2193 40 15.3817V20.016H27.5089L36.5181 16.1861L33.8459 14.4123L25.1048 17.7876L29.2081 12.358L26.2571 11.5501L21.7259 16.6282L21.3885 10.9091H18.3825L18.0398 16.6282L13.5121 11.5501L10.5629 12.358L14.6609 17.7859L5.92507 14.4123L3.25284 16.1861L12.2603 20.016H0V15.3817C0 11.2193 0.000553673 9.13798 0.56108 7.45739C1.64713 4.20208 4.20208 1.64713 7.45739 0.56108C9.13798 0.000553673 11.2193 0 15.3817 0H24.6183Z" fill="#FF1616"></path>
<path d="M93.2734 31.4434C94.2133 33.206 96.0283 34.3154 98.3672 34.3154C100.706 34.3154 102.521 33.206 103.461 31.4434H106.979C105.816 34.9653 102.584 37.3193 98.3672 37.3193C94.1506 37.3193 90.9183 34.9653 89.7549 31.4434H93.2734ZM144.503 12.7598C149.863 12.7598 153.618 16.4467 153.618 21.7383C153.618 27.3371 149.453 30.5127 145.049 30.5127C142.318 30.5126 139.997 29.2833 138.768 27.0986V37.2715H135.524V21.7725C135.524 16.2761 139.28 12.7598 144.503 12.7598ZM144.537 15.7637C141.089 15.7637 138.768 18.222 138.768 21.6357C138.768 25.0496 141.089 27.5078 144.537 27.5078C148.019 27.5078 150.341 25.0497 150.341 21.6357C150.341 18.2219 148.019 15.7637 144.537 15.7637ZM79.0586 12.7598C84.3842 12.7598 88.1395 16.515 88.1396 21.6357C88.1396 26.7566 84.3843 30.5127 79.0586 30.5127C73.7329 30.5127 69.9775 26.7566 69.9775 21.6357C69.9777 16.515 73.733 12.7598 79.0586 12.7598ZM79.0586 15.7637C75.5765 15.7637 73.255 18.2219 73.2549 21.6357C73.2549 25.0497 75.5764 27.5078 79.0586 27.5078C82.5408 27.5078 84.8623 25.0497 84.8623 21.6357C84.8622 18.2219 82.5407 15.7637 79.0586 15.7637ZM98.7266 12.7676H107.548V15.668H105.272C106.65 17.2132 107.447 19.2791 107.447 21.6357C107.447 26.7566 103.692 30.5127 98.3662 30.5127C93.0405 30.5127 89.2852 26.7566 89.2852 21.6357C89.2853 16.515 93.0406 12.7598 98.3662 12.7598C98.4872 12.7598 98.6073 12.7637 98.7266 12.7676ZM98.3662 15.7637C94.8841 15.7637 92.5626 18.2219 92.5625 21.6357C92.5625 25.0497 94.884 27.5078 98.3662 27.5078C101.848 27.5078 104.17 25.0497 104.17 21.6357C104.17 18.2219 101.848 15.7637 98.3662 15.7637ZM117.675 12.7598C123 12.7598 126.756 16.515 126.756 21.6357C126.756 26.7566 123 30.5127 117.675 30.5127C112.349 30.5127 108.594 26.7566 108.594 21.6357C108.594 16.515 112.349 12.7598 117.675 12.7598ZM117.675 15.7637C114.193 15.7637 111.871 18.2219 111.871 21.6357C111.871 25.0497 114.193 27.5078 117.675 27.5078C121.157 27.5078 123.479 25.0497 123.479 21.6357C123.478 18.2219 121.157 15.7637 117.675 15.7637ZM161.816 12.7598C165.845 12.7599 168.337 15.0475 168.405 17.9492H165.195C165.093 16.652 163.899 15.6955 161.851 15.6953C159.7 15.6953 158.471 16.7203 158.471 18.0518C158.471 19.6559 160.246 19.8265 162.328 20.0996C165.264 20.4751 168.848 21.0215 168.849 24.8789C168.849 28.2927 166.084 30.5125 161.851 30.5127C157.617 30.5127 154.954 28.259 154.852 25.1865H158.129C158.197 26.5862 159.495 27.5762 161.851 27.5762C164.308 27.576 165.571 26.5179 165.571 25.1865C165.571 23.582 163.796 23.3766 161.68 23.1035C158.744 22.728 155.193 22.182 155.193 18.3242C155.193 15.0128 157.788 12.7598 161.816 12.7598ZM173.983 22.0107C173.983 25.6636 175.998 27.5078 179.07 27.5078C182.143 27.5078 184.157 25.6636 184.157 22.0107V13.2031H187.4V22.0107C187.4 27.6096 184.055 30.5117 179.07 30.5117C174.086 30.5117 170.74 27.6437 170.74 22.0107V13.2031H173.983V22.0107ZM56.4824 26.8594H69.0117V30.0684H53V7.74121H56.4824V26.8594ZM132.442 30.0684H129.199V13.2031H132.442V30.0684ZM208.76 12.7598C212.72 12.7598 215.725 15.1496 215.725 20.3047V30.0684H212.481V20.3047C212.481 17.164 210.809 15.7638 208.453 15.7637C206.166 15.7637 204.458 17.2321 204.458 20.3047V30.0684H201.215V20.3047C201.215 17.2321 199.474 15.7637 197.187 15.7637C194.831 15.7637 193.158 17.1639 193.158 20.3047V30.0684H189.915V20.3047C189.915 15.1496 192.92 12.7598 196.88 12.7598C199.474 12.7599 201.659 13.9207 202.819 16.1055C203.98 13.9206 206.131 12.7598 208.76 12.7598ZM130.804 6C132.101 6 133.058 6.95577 133.058 8.25293C133.058 9.55023 132.101 10.541 130.804 10.541C129.507 10.5409 128.551 9.55014 128.551 8.25293C128.551 6.95586 129.507 6.00013 130.804 6Z" fill="#280F00"></path>
</svg>