<?xml version="1.0" encoding="utf-8"?>
<!-- Generator: Adobe Illustrator 24.3.0, SVG Export Plug-In . SVG Version: 6.00 Build 0)  -->
<svg version="1.1" id="Layer_1" xmlns="http://www.w3.org/2000/svg" xmlns:xlink="http://www.w3.org/1999/xlink" x="0px" y="0px"
	 viewBox="0 0 1417 834.2" style="enable-background:new 0 0 1417 834.2;" xml:space="preserve">
<style type="text/css">
	.st0{fill:#FBFAFE;}
	.st1{fill:url(#SVGID_1_);}
	.st2{fill:#FFFFFF;}
</style>
<g>
	<path class="st0" d="M1394.5,834.2H22.5C10.1,834.2,0,824.2,0,811.7V22.5C0,10.1,10.1,0,22.5,0h1371.9c12.4,0,22.5,10.1,22.5,22.5
		v789.2C1417,824.2,1406.9,834.2,1394.5,834.2z"/>
</g>
<linearGradient id="SVGID_1_" gradientUnits="userSpaceOnUse" x1="0" y1="41.145" x2="1417.0001" y2="41.145">
	<stop  offset="0" style="stop-color:#8671E8"/>
	<stop  offset="1" style="stop-color:#9685F7"/>
</linearGradient>
<path class="st1" d="M1417,82.3H0V22.5C0,10.1,10.1,0,22.5,0h1371.9c12.4,0,22.5,10.1,22.5,22.5L1417,82.3L1417,82.3z"/>
<path class="st2" d="M1294.8,731.6H759.9c-8.3,0-15.1-6.8-15.1-15.1V199.3c0-8.3,6.8-15.1,15.1-15.1h534.9c8.3,0,15.1,6.8,15.1,15.1
	v517.2C1309.9,724.8,1303.2,731.6,1294.8,731.6z"/>
<path class="st2" d="M203.5,656.5h-87.6c-4.9,0-8.9-4-8.9-8.9v-20.8c0-4.9,4-8.9,8.9-8.9h87.6c4.9,0,8.9,4,8.9,8.9v20.8
	C212.4,652.5,208.4,656.5,203.5,656.5z"/>
<path class="st2" d="M336.3,656.5h-87.6c-4.9,0-8.9-4-8.9-8.9v-20.8c0-4.9,4-8.9,8.9-8.9h87.6c4.9,0,8.9,4,8.9,8.9v20.8
	C345.2,652.5,341.2,656.5,336.3,656.5z"/>
<path class="st2" d="M280.5,306.6H119.4c-6.6,0-12-5.4-12-12v-14.5c0-6.6,5.4-12,12-12h161.1c6.6,0,12,5.4,12,12v14.5
	C292.5,301.3,287.2,306.6,280.5,306.6z"/>
<path class="st2" d="M527.2,417.1H119.4c-6.7,0-12.1-5.4-12.1-12.1v-48.6c0-6.7,5.4-12.1,12.1-12.1h407.8c6.7,0,12.1,5.4,12.1,12.1
	v48.6C539.3,411.7,533.9,417.1,527.2,417.1z"/>
<path class="st2" d="M527.5,580.2H119.2c-6.5,0-11.8-5.3-11.8-11.8V466.7c0-6.5,5.3-11.8,11.8-11.8h408.4c6.5,0,11.8,5.3,11.8,11.8
	v101.8C539.3,574.9,534,580.2,527.5,580.2z"/>
<g>
	<polygon class="st2" points="78.6,33.3 78.6,21.9 49.5,21.9 49.5,51 61,51 61,33.3 	"/>
	<polygon class="st2" points="78.6,51 61,51 61,62.4 90,62.4 90,33.3 78.6,33.3 	"/>
</g>
</svg>
