<svg width="100" height="100" viewBox="0 0 100 100" fill="none" xmlns="http://www.w3.org/2000/svg">
<rect width="100" height="100" fill="white"/>
<path d="M16.23 75V25.3H33.1C38.3733 25.3 42.76 26.42 46.26 28.66C49.8067 30.8533 52.4667 33.84 54.24 37.62C56.0133 41.3533 56.9 45.5067 56.9 50.08C56.9 55.12 55.92 59.5067 53.96 63.24C52.0467 66.9733 49.2933 69.8667 45.7 71.92C42.1533 73.9733 37.9533 75 33.1 75H16.23ZM52 50.08C52 46.1133 51.2533 42.59 49.76 39.51C48.3133 36.43 46.19 34.0267 43.39 32.3C40.59 30.5267 37.16 29.64 33.1 29.64H21.13V70.66H33.1C37.2067 70.66 40.66 69.75 43.46 67.93C46.26 66.11 48.3833 63.66 49.83 60.58C51.2767 57.4533 52 53.9533 52 50.08ZM64.5891 79.34V75H91.2591V79.34H64.5891Z" fill="#EBB61A"/>
</svg>
