<svg width="100" height="100" viewBox="0 0 100 100" fill="none" xmlns="http://www.w3.org/2000/svg">
<rect width="100" height="100" fill="white"/>
<path d="M16.662 72V27.27H32.916C37.788 27.27 41.862 28.278 45.138 30.294C48.414 32.268 50.871 34.956 52.509 38.358C54.147 41.718 54.966 45.456 54.966 49.572C54.966 54.108 54.063 58.056 52.257 61.416C50.451 64.776 47.889 67.38 44.571 69.228C41.295 71.076 37.41 72 32.916 72H16.662ZM46.209 49.572C46.209 46.674 45.684 44.133 44.634 41.949C43.584 39.723 42.072 38.001 40.098 36.783C38.124 35.523 35.73 34.893 32.916 34.893H25.356V64.377H32.916C35.772 64.377 38.187 63.747 40.161 62.487C42.135 61.185 43.626 59.421 44.634 57.195C45.684 54.927 46.209 52.386 46.209 49.572ZM60.4987 79.623V72H83.6197V79.623H60.4987Z" fill="#EBB61A"/>
</svg>
