<svg width="68" height="53" viewBox="0 0 68 53" fill="none" xmlns="http://www.w3.org/2000/svg">
<path d="M0.662 45V0.269998H16.916C21.788 0.269998 25.862 1.278 29.138 3.294C32.414 5.268 34.871 7.956 36.509 11.358C38.147 14.718 38.966 18.456 38.966 22.572C38.966 27.108 38.063 31.056 36.257 34.416C34.451 37.776 31.889 40.38 28.571 42.228C25.295 44.076 21.41 45 16.916 45H0.662ZM30.209 22.572C30.209 19.674 29.684 17.133 28.634 14.949C27.584 12.723 26.072 11.001 24.098 9.783C22.124 8.523 19.73 7.893 16.916 7.893H9.356V37.377H16.916C19.772 37.377 22.187 36.747 24.161 35.487C26.135 34.185 27.626 32.421 28.634 30.195C29.684 27.927 30.209 25.386 30.209 22.572ZM44.4987 52.623V45H67.6197V52.623H44.4987Z" fill="#EBB61A"/>
</svg>
